<svg xmlns="http://www.w3.org/2000/svg" viewBox="0 0 16.2 15.36"><defs><style>.cls-1{fill:#7287c3;}.cls-2{fill:#fff;}.cls-3{fill:none;stroke:#1d1d1b;stroke-miterlimit:22.93;stroke-width:0.61px;}</style></defs><title>Ресурс 3</title><g id="Слой_2" data-name="Слой 2"><g id="Слой_1-2" data-name="Слой 1"><path class="cls-1" d="M15.42,7.6a7.23,7.23,0,0,1-7.16,7.3,7.42,7.42,0,0,1-5.51-2.31L.34,14c-.21-3.51.72-5.37.75-6.38C1.21,4.35,3.91.31,8.26.31a7.14,7.14,0,0,1,5.13,2.08L15.92.94C15.92,6.13,15.42,6.09,15.42,7.6Z"/><path class="cls-2" d="M15.89,3A27.55,27.55,0,0,1,16,6.06a46.63,46.63,0,0,1-4.5,2.17L9,9.63C9,8.73,10.23,7.58,9.86,7c-1.49-2.19-.53-2.7.82-3.54A29.7,29.7,0,0,1,15.9.92"/><path class="cls-2" d="M7.25,7.31s.07.47.06,3.1a47.94,47.94,0,0,1-4.5,2.18L.39,14C.18,10.47.24,9,2,7.85A31.27,31.27,0,0,1,7.25,5.28"/><path class="cls-3" d="M.31,11.42V14l6.93-3.49V5.28L2.11,7.86M.31,11.42v-.93m0,0a3,3,0,0,1,1.8-2.63m1.67,4.37V11.05m0-1.15a.27.27,0,1,0,0-.54.27.27,0,1,0,0,.54Zm6.89-6.34L15.9.94V6.13L9,9.59,9.86,7q-2-2.2.81-3.48Zm1.78,4.3V6.75m0-1.24a.24.24,0,1,0,0-.48.24.24,0,1,0,0,.48Zm.9-3.12A7.38,7.38,0,0,0,.85,7.68,7.11,7.11,0,0,0,.94,8.82m1.79,3.77A7.37,7.37,0,0,0,15.6,7.68a7.81,7.81,0,0,0-.11-1.28"/></g></g></svg>