<svg width="48" height="41" viewBox="0 0 48 41" fill="none" xmlns="http://www.w3.org/2000/svg">
<path d="M33.5927 29.613L29.12 26.7918C29.0373 26.7392 28.9726 26.6625 28.9347 26.572C28.8968 26.4815 28.8876 26.3816 28.9082 26.2857L30.2828 19.9535L31.218 20.1564L29.9142 26.1591L34.1041 28.8045L33.5927 29.613Z" fill="black"/>
<path d="M33.438 6.63238L13.0342 0L26.7215 15.6724L33.438 6.63238Z" fill="#FF4D2F"/>
<path d="M5.00505 2.78348L17.6059 12.4856L12.919 13.2144L0 3.2571L0.603872 2.78948C1.2336 2.30207 2.00711 2.0371 2.80344 2.03601C3.59976 2.03493 4.37399 2.29779 5.00505 2.78348Z" fill="#FF4D2F"/>
<path d="M8.14628 2.78348L20.7465 12.4856L16.0602 13.2126L3.14062 3.25709L3.7451 2.78948C4.37483 2.30207 5.14834 2.0371 5.94466 2.03601C6.74099 2.03493 7.51522 2.29779 8.14628 2.78348Z" fill="#151C24"/>
<path d="M38.7066 8.91291V11.0042L37.1459 14.5314L35.6093 18.001C32.1535 25.8117 21.4255 26.6887 16.7428 19.5509L15.876 18.2303L28.1671 10.817L31.8888 6.84618L33.8271 6.60607L36.0276 6.33655L38.7066 8.91291Z" fill="#FF4D2F"/>
<path d="M40.1039 7.54065V9.1986L42.1742 11.5643L38.9213 10.5612L37.0713 8.68116L40.1039 7.54065Z" fill="#FFC9BF"/>
<path d="M44.6978 6.68171L37.0743 8.68121L36.5863 8.48432L36.5263 8.46092L35.5256 8.05933C35.2703 7.95429 34.9907 7.92249 34.7183 7.96749C34.3834 8.0207 34.0759 8.18447 33.8449 8.4327L25.5864 17.3059C25.1419 18.3656 24.3164 19.2204 23.2728 19.7015C22.2292 20.1826 21.0431 20.2553 19.9486 19.9051L3.97363 14.786C3.97363 14.786 27.4616 9.69567 27.4616 9.67466C32.8928 1.50078 37.8607 4.63599 39.5006 6.06284L39.512 6.07244C39.7097 6.24201 39.8964 6.42406 40.0709 6.61748L44.6978 6.68171Z" fill="#151C24"/>
<path d="M37.0713 8.68103L38.6572 11.0041L42.1844 11.5959L37.0713 8.68103Z" fill="#FF4D2F"/>
<path d="M27.461 9.67395L25.7304 16.7163C25.5808 17.3249 25.3073 17.8961 24.927 18.3943C24.5466 18.8924 24.0677 19.3067 23.52 19.6114C22.9724 19.9161 22.3678 20.1046 21.744 20.1652C21.1202 20.2257 20.4906 20.1569 19.8946 19.9632L3.97363 14.7852L27.461 9.67395Z" fill="#151C24"/>
<path d="M23.31 32.2585L20.1034 27.0169C20.0523 26.9331 20.0281 26.8356 20.0341 26.7376C20.0401 26.6396 20.076 26.5458 20.137 26.4689L24.8401 20.5658L25.5886 21.1619L21.0968 26.8044L24.1282 31.7602L23.31 32.2585Z" fill="black"/>
<path d="M17.0969 35.0943L16.6768 33.8205L38.6875 26.6292L46.1848 19.1775L47.1291 20.1271L39.5212 27.6905C39.4471 27.7645 39.3566 27.82 39.2571 27.8526L17.0969 35.0943Z" fill="black"/>
<path d="M40.0706 6.61809L37.0692 8.68121C36.9048 8.61038 36.7421 8.54555 36.5812 8.48432L36.5212 8.46092C35.9367 8.24338 35.3341 8.07826 34.7204 7.96749C30.3594 7.18114 27.4619 9.67466 27.4619 9.67466C32.8926 1.50078 37.8604 4.63599 39.5003 6.06284L39.5117 6.07244L40.0706 6.61809Z" fill="#151C24"/>
<path d="M34.5939 8.78913C35.2029 8.78913 35.6966 8.29544 35.6966 7.68644C35.6966 7.07743 35.2029 6.58374 34.5939 6.58374C33.9849 6.58374 33.4912 7.07743 33.4912 7.68644C33.4912 8.29544 33.9849 8.78913 34.5939 8.78913Z" fill="white"/>
<path d="M32.3145 7.36946C32.867 7.13622 33.469 7.04421 34.066 7.10174L33.6681 7.35566C33.6681 7.35566 32.8241 7.27402 32.3145 7.36946Z" fill="white"/>
<path d="M33.3076 7.10843C33.3076 7.10843 34.8683 6.90494 35.8972 8.13309L35.7351 6.31787L34.4199 5.75842L33.3076 7.10843Z" fill="#151C24"/>
<path d="M48.0004 30.7699C47.4442 31.1238 46.8173 31.3519 46.1637 31.4381C45.51 31.5243 44.8454 31.4666 44.2164 31.2691C43.5874 31.0715 43.0092 30.7388 42.5223 30.2944C42.0353 29.8499 41.6514 29.3043 41.3975 28.6959C41.9534 28.341 42.5804 28.1122 43.2343 28.0254C43.8881 27.9387 44.5531 27.9962 45.1823 28.1938C45.8116 28.3915 46.39 28.7245 46.8769 29.1696C47.3637 29.6146 47.7472 30.1608 48.0004 30.7699Z" fill="black"/>
<path d="M10.4902 28.0548C11.1086 27.9415 11.7443 27.9649 12.3528 28.1232C12.9612 28.2815 13.5276 28.571 14.0124 28.9713C14.4971 29.3716 14.8885 29.8732 15.1589 30.4407C15.4294 31.0082 15.5725 31.6281 15.5781 32.2567C14.9596 32.371 14.3236 32.3484 13.7147 32.1904C13.1059 32.0325 12.539 31.7431 12.0541 31.3426C11.5691 30.942 11.1777 30.4401 10.9076 29.8721C10.6374 29.3041 10.4949 28.6838 10.4902 28.0548Z" fill="black"/>
<path d="M27.9883 30.4041L24.8291 39.7861L26.0989 40.2137L29.2581 30.8317L27.9883 30.4041Z" fill="black"/>
<path d="M20.5114 39.1815C21.2938 39.1815 21.928 38.5473 21.928 37.7649C21.928 36.9825 21.2938 36.3483 20.5114 36.3483C19.729 36.3483 19.0947 36.9825 19.0947 37.7649C19.0947 38.5473 19.729 39.1815 20.5114 39.1815Z" fill="#FF4D2F"/>
<path d="M33.1901 35.4784C33.9725 35.4784 34.6067 34.8442 34.6067 34.0618C34.6067 33.2794 33.9725 32.6451 33.1901 32.6451C32.4077 32.6451 31.7734 33.2794 31.7734 34.0618C31.7734 34.8442 32.4077 35.4784 33.1901 35.4784Z" fill="#FF4D2F"/>
<path d="M39.6276 21.2376C40.41 21.2376 41.0442 20.6033 41.0442 19.8209C41.0442 19.0385 40.41 18.4043 39.6276 18.4043C38.8452 18.4043 38.2109 19.0385 38.2109 19.8209C38.2109 20.6033 38.8452 21.2376 39.6276 21.2376Z" fill="#FF4D2F"/>
<path d="M32.8423 14.4767C32.7795 14.5937 32.6728 14.6809 32.5457 14.7193C32.4185 14.7576 32.2813 14.7439 32.1643 14.6811C32.0473 14.6183 31.96 14.5115 31.9217 14.3844C31.8834 14.2572 31.8971 14.1201 31.9599 14.0031L32.8423 14.4767Z" fill="#FFC9BF"/>
<path d="M34.607 15.4269C34.5442 15.5439 34.4375 15.6311 34.3103 15.6695C34.1831 15.7078 34.046 15.6941 33.929 15.6313C33.812 15.5684 33.7247 15.4617 33.6864 15.3346C33.648 15.2074 33.6618 15.0703 33.7246 14.9532L34.607 15.4269Z" fill="#FFC9BF"/>
<path d="M34.2603 13.9402C34.1975 14.0572 34.0908 14.1444 33.9636 14.1828C33.8365 14.2211 33.6993 14.2074 33.5823 14.1446C33.4653 14.0818 33.378 13.975 33.3397 13.8479C33.3013 13.7207 33.3151 13.5836 33.3779 13.4666L34.2603 13.9402Z" fill="#FFC9BF"/>
<path d="M31.1675 15.0722C31.1047 15.1893 30.998 15.2765 30.8708 15.3149C30.7437 15.3532 30.6065 15.3394 30.4895 15.2766C30.3725 15.2138 30.2852 15.1071 30.2469 14.98C30.2086 14.8528 30.2223 14.7156 30.2851 14.5986L31.1675 15.0722Z" fill="#FFC9BF"/>
<path d="M32.9323 16.02C32.8694 16.137 32.7626 16.2242 32.6354 16.2625C32.5082 16.3008 32.371 16.287 32.254 16.2241C32.137 16.1612 32.0498 16.0544 32.0115 15.9272C31.9732 15.8 31.987 15.6628 32.0499 15.5458L32.9323 16.02Z" fill="#FFC9BF"/>
<path d="M29.7906 19.0057C29.7278 19.1227 29.621 19.21 29.4939 19.2483C29.3667 19.2867 29.2296 19.2729 29.1126 19.2101C28.9955 19.1473 28.9083 19.0406 28.8699 18.9134C28.8316 18.7863 28.8454 18.6491 28.9082 18.5321L29.7906 19.0057Z" fill="#FFC9BF"/>
<path d="M34.696 16.9709C34.6331 17.0879 34.5263 17.1752 34.3991 17.2134C34.2719 17.2517 34.1347 17.2379 34.0177 17.175C33.9007 17.1121 33.8134 17.0053 33.7751 16.8781C33.7369 16.7509 33.7507 16.6137 33.8136 16.4967L34.696 16.9709Z" fill="#FFC9BF"/>
<path d="M33.1198 19.3587C33.0569 19.4757 32.9501 19.563 32.8229 19.6013C32.6957 19.6395 32.5585 19.6257 32.4415 19.5628C32.3245 19.4999 32.2373 19.3932 32.199 19.2659C32.1607 19.1387 32.1745 19.0015 32.2374 18.8845L33.1198 19.3587Z" fill="#FFC9BF"/>
<path d="M31.2671 16.8634C31.2043 16.9804 31.0976 17.0677 30.9705 17.106C30.8433 17.1443 30.7061 17.1306 30.5891 17.0678C30.4721 17.005 30.3848 16.8983 30.3465 16.7711C30.3082 16.644 30.3219 16.5068 30.3847 16.3898L31.2671 16.8634Z" fill="#FFC9BF"/>
<path d="M33.0318 17.8113C32.969 17.9283 32.8623 18.0155 32.7351 18.0539C32.608 18.0922 32.4708 18.0785 32.3538 18.0157C32.2368 17.9528 32.1495 17.8461 32.1112 17.719C32.0728 17.5918 32.0866 17.4547 32.1494 17.3376L33.0318 17.8113Z" fill="#FFC9BF"/>
<path d="M29.5923 17.4588C29.5295 17.5759 29.4228 17.6631 29.2957 17.7015C29.1685 17.7398 29.0313 17.726 28.9143 17.6632C28.7973 17.6004 28.71 17.4937 28.6717 17.3666C28.6334 17.2394 28.6471 17.1022 28.7099 16.9852L29.5923 17.4588Z" fill="#FFC9BF"/>
<path d="M31.3571 18.4067C31.2942 18.5237 31.1874 18.611 31.0602 18.6492C30.933 18.6875 30.7958 18.6737 30.6788 18.6108C30.5618 18.5479 30.4746 18.4411 30.4363 18.3139C30.398 18.1867 30.4118 18.0495 30.4747 17.9325L31.3571 18.4067Z" fill="#FFC9BF"/>
<path d="M22.2554 13.8231C22.1926 13.9401 22.0859 14.0274 21.9587 14.0657C21.8316 14.104 21.6944 14.0903 21.5774 14.0275C21.4604 13.9647 21.3731 13.858 21.3348 13.7308C21.2965 13.6037 21.3102 13.4665 21.373 13.3495L22.2554 13.8231Z" fill="#FF4D2F"/>
<path d="M24.0201 14.7709C23.9573 14.8879 23.8505 14.9751 23.7234 15.0135C23.5962 15.0518 23.4591 15.0381 23.3421 14.9752C23.225 14.9124 23.1378 14.8057 23.0994 14.6786C23.0611 14.5514 23.0749 14.4143 23.1377 14.2972L24.0201 14.7709Z" fill="#FF4D2F"/>
<path d="M23.6725 13.287C23.6097 13.404 23.5029 13.4912 23.3757 13.5295C23.2485 13.5678 23.1113 13.5539 22.9942 13.491C22.8772 13.4282 22.79 13.3214 22.7517 13.1942C22.7134 13.067 22.7273 12.9298 22.7901 12.8127L23.6725 13.287Z" fill="#FF4D2F"/>
<path d="M20.5787 14.4186C20.5158 14.5356 20.4091 14.6228 20.282 14.6612C20.1548 14.6995 20.0177 14.6858 19.9006 14.623C19.7836 14.5601 19.6964 14.4534 19.658 14.3263C19.6197 14.1991 19.6334 14.062 19.6963 13.9449L20.5787 14.4186Z" fill="#FF4D2F"/>
<path d="M22.3454 15.3669C22.2825 15.4839 22.1757 15.5712 22.0485 15.6094C21.9213 15.6477 21.7841 15.6339 21.6671 15.571C21.5501 15.5081 21.4628 15.4013 21.4246 15.2741C21.3863 15.1469 21.4001 15.0097 21.463 14.8927L22.3454 15.3669Z" fill="#FF4D2F"/>
<path d="M24.1089 16.3171C24.0778 16.3751 24.0356 16.4263 23.9847 16.4679C23.9338 16.5096 23.8752 16.5408 23.8123 16.5597C23.7493 16.5787 23.6832 16.5851 23.6178 16.5785C23.5524 16.572 23.4889 16.5526 23.4309 16.5215C23.373 16.4904 23.3217 16.4482 23.2801 16.3973C23.2385 16.3464 23.2073 16.2878 23.1883 16.2248C23.1693 16.1619 23.1629 16.0958 23.1695 16.0304C23.176 15.9649 23.1954 15.9014 23.2265 15.8435L24.1089 16.3171Z" fill="#FF4D2F"/>
<path d="M20.6794 16.2103C20.6165 16.3273 20.5097 16.4146 20.3825 16.4528C20.2553 16.4911 20.1181 16.4773 20.0011 16.4144C19.8841 16.3515 19.7968 16.2447 19.7585 16.1175C19.7203 15.9903 19.7341 15.8531 19.797 15.7361L20.6794 16.2103Z" fill="#FF4D2F"/>
<path d="M22.4449 17.1574C22.3821 17.2745 22.2753 17.3617 22.1482 17.4001C22.021 17.4384 21.8839 17.4246 21.7669 17.3618C21.6498 17.299 21.5626 17.1923 21.5242 17.0652C21.4859 16.938 21.4997 16.8009 21.5625 16.6838L22.4449 17.1574Z" fill="#FF4D2F"/>
<path d="M20.7701 17.753C20.7073 17.87 20.6005 17.9573 20.4734 17.9956C20.3462 18.034 20.2091 18.0202 20.0921 17.9574C19.975 17.8946 19.8878 17.7879 19.8494 17.6608C19.8111 17.5336 19.8249 17.3964 19.8877 17.2794L20.7701 17.753Z" fill="#FF4D2F"/>
<path d="M34.594 8.49151C35.0386 8.49151 35.399 8.13112 35.399 7.68655C35.399 7.24198 35.0386 6.88159 34.594 6.88159C34.1495 6.88159 33.7891 7.24198 33.7891 7.68655C33.7891 8.13112 34.1495 8.49151 34.594 8.49151Z" fill="#151C24"/>
<path d="M19.9625 38.2048C20.2055 38.2048 20.4025 38.0078 20.4025 37.7648C20.4025 37.5218 20.2055 37.3248 19.9625 37.3248C19.7195 37.3248 19.5225 37.5218 19.5225 37.7648C19.5225 38.0078 19.7195 38.2048 19.9625 38.2048Z" fill="black"/>
<path d="M33.6304 34.7557C33.8734 34.7557 34.0704 34.5587 34.0704 34.3157C34.0704 34.0727 33.8734 33.8757 33.6304 33.8757C33.3874 33.8757 33.1904 34.0727 33.1904 34.3157C33.1904 34.5587 33.3874 34.7557 33.6304 34.7557Z" fill="black"/>
<path d="M39.3834 20.0622C39.6264 20.0622 39.8234 19.8653 39.8234 19.6222C39.8234 19.3792 39.6264 19.1823 39.3834 19.1823C39.1404 19.1823 38.9434 19.3792 38.9434 19.6222C38.9434 19.8653 39.1404 20.0622 39.3834 20.0622Z" fill="black"/>
</svg>
